Coordinates
version=1
nRows=19
nColumns=24
inDegrees=yes

Units are S.I. units (second, meters, Newtons, ...)
Angles are in degrees.

endheader
time	pelvis_tilt	pelvis_list	pelvis_rotation	pelvis_tx	pelvis_ty	pelvis_tz	hip_flexion_r	hip_adduction_r	hip_rotation_r	knee_angle_r	ankle_angle_r	subtalar_angle_r	mtp_angle_r	hip_flexion_l	hip_adduction_l	hip_rotation_l	knee_angle_l	ankle_angle_l	subtalar_angle_l	mtp_angle_l	lumbar_extension	lumbar_bending	lumbar_rotation
      3.48500000	     -6.66355527	      7.26612440	    358.38506287	      0.61681203	      1.37876905	     -1.03220615	      0.31383908	     -4.53650673	      3.71110107	    -30.78587132	     -0.60502525	     -5.22766233	     20.96316255	     19.48459412	      8.67358025	     -9.40233531	     -4.08006661	    -10.71106817	      6.09942398	     35.13653636	      7.79190950	     -6.49216860	    113.64066739
      3.49000000	     -6.57600634	      7.32909997	    358.38167808	      0.62157248	      1.37937785	     -1.03275437	      0.95542075	     -4.68992332	      3.67375925	    -32.37308291	     -1.58359080	     -4.99841674	     22.00468959	     19.30868616	      8.77483140	     -9.36628305	     -4.49046337	    -10.43149255	      6.02599648	     34.52627838	      7.66746101	     -6.63436913	    113.56842605
      3.49500000	     -6.48580270	      7.34908384	    358.37937632	      0.62632239	      1.37999435	     -1.03336382	      1.60218610	     -4.79463862	      3.67773996	    -33.92343127	     -2.62955976	     -4.79388948	     23.07794728	     19.09527826	      8.84318227	     -9.23618196	     -4.84236627	    -10.08498754	      5.98078219	     33.85017968	      7.55615003	     -6.69783769	    113.58851654
      3.50000000	     -6.42061544	      7.39800917	    358.39051643	      0.63101287	      1.38054312	     -1.03396830	      2.30425569	     -4.92965415	      3.68462746	    -35.49288893	     -3.53503218	     -4.47953902	     23.89197849	     18.88236969	      8.95243573	     -9.05857151	     -5.12349742	     -9.82834936	      5.82154872	     33.28889123	      7.46197085	     -6.81672907	    113.48942591
      3.50500000	     -6.37759560	      7.47459738	    358.39992461	      0.63565975	      1.38102354	     -1.03456544	      3.05333701	     -5.09121772	      3.70545988	    -37.06255719	     -4.32955793	     -4.18199477	     24.58720750	     18.66978709	      9.09704103	     -8.88265394	     -5.34642959	     -9.60685102	      5.59846922	     32.75983354	      7.39588708	     -6.96821162	    113.39348271
      3.51000000	     -6.28654416	      7.50413582	    358.39392003	      0.64022655	      1.38155550	     -1.03517377	      3.74779536	     -5.18911384	      3.78713602	    -38.56252074	     -5.10050266	     -3.92910408	     25.32154787	     18.37255678	      9.19950742	     -8.64602426	     -5.50584206	     -9.34973897	      5.37970690	     32.14462481	      7.26669996	     -7.05140537	    113.30539424
      3.51500000	     -6.23681018	      7.54422068	    358.41098765	      0.64472881	      1.38202129	     -1.03582480	      4.49961846	     -5.30077947	      3.84385353	    -40.05089322	     -5.68753149	     -3.58204697	     25.79408820	     18.10198462	      9.32593391	     -8.37345113	     -5.61165824	     -9.20456282	      5.03008696	     31.69527747	      7.17615789	     -7.14772686	    113.16357967
      3.52000000	     -6.20361266	      7.60265065	    358.41729993	      0.64922566	      1.38244641	     -1.03644418	      5.27207124	     -5.41953197	      3.94246752	    -41.49830505	     -6.12005430	     -3.24681464	     26.19954072	     17.81105557	      9.47309360	     -8.05634063	     -5.63677762	     -9.09158931	      4.62269554	     31.25744285	      7.11484528	     -7.26683730	    113.02266393
      3.52500000	     -6.15973709	      7.63462921	    358.42235227	      0.65365720	      1.38288046	     -1.03707109	      6.02752222	     -5.50030967	      4.05794395	    -42.88200458	     -6.42863536	     -2.91678264	     26.55925122	     17.48707484	      9.59808417	     -7.69076877	     -5.61516849	     -8.99813861	      4.15101477	     30.82324143	      7.03716441	     -7.34928923	    112.87677286
      3.53000000	     -6.09988030	      7.65873648	    358.41987045	      0.65804783	      1.38332830	     -1.03768453	      6.75952857	     -5.56281263	      4.19268635	    -44.20242685	     -6.58585139	     -2.58565562	     26.85632234	     17.12046556	      9.71735123	     -7.28990300	     -5.53787815	     -8.94314828	      3.62332218	     30.42109256	      6.94033977	     -7.41940886	    112.70819823
      3.53500000	     -6.07197278	      7.66925277	    358.41782387	      0.66240564	      1.38375691	     -1.03830314	      7.52305113	     -5.60102151	      4.33817725	    -45.46555015	     -6.60371056	     -2.26331191	     27.10408881	     16.77480197	      9.82274668	     -6.84536631	     -5.43161694	     -8.91352822	      3.02520706	     30.03264162	      6.88092327	     -7.46785972	    112.54739552
      3.54000000	     -6.02690987	      7.67244045	    358.40592142	      0.66672325	      1.38419203	     -1.03890501	      8.26321656	     -5.62282096	      4.49526636	    -46.66649784	     -6.48588025	     -1.94634302	     27.30466153	     16.39606605	      9.91948532	     -6.37423665	     -5.29143045	     -8.91246420	      2.37906134	     29.67247963	      6.79877353	     -7.50031374	    112.36878190
      3.54500000	     -5.99752297	      7.65165086	    358.39466344	      0.67100222	      1.38462716	     -1.03950549	      9.01249887	     -5.60889293	      4.65372302	    -47.79966544	     -6.24330044	     -1.66673935	     27.46099417	     16.03530722	      9.98889727	     -5.87235337	     -5.15345635	     -8.92015459	      1.68280091	     29.31756043	      6.73517994	     -7.49917980	    112.20979243
      3.55000000	     -5.95434430	      7.61765700	    358.37620490	      0.67526837	      1.38509628	     -1.04008077	      9.73476579	     -5.57213716	      4.81595313	    -48.85611345	     -5.90735998	     -1.41251615	     27.58710964	     15.65492717	     10.04008597	     -5.37044304	     -5.00743056	     -8.93654668	      0.99088235	     28.98220274	      6.65738257	     -7.48231091	    112.03697776
      3.55500000	     -5.88870754	      7.58162456	    358.32151881	      0.67949058	      1.38560045	     -1.04055692	     10.43472842	     -5.51091867	      5.02303647	    -49.84708877	     -5.51237057	     -1.20036791	     27.69579399	     15.25321807	     10.07168871	     -4.94119520	     -4.85981823	     -8.95912362	      0.36859451	     28.68268952	      6.55240541	     -7.47248328	    111.83784155
      3.56000000	     -5.82645140	      7.51066944	    358.30217525	      0.68372889	      1.38611966	     -1.04112598	     11.11003201	     -5.42341542	      5.17018882	    -50.74909286	     -5.02139484	     -1.01332307	     27.77819588	     14.86963371	     10.07821518	     -4.43422543	     -4.75688801	     -8.94043871	     -0.30765673	     28.35282237	      6.45914619	     -7.40274078	    111.66858685
      3.56500000	     -5.78850701	      7.41974238	    358.30595270	      0.68800840	      1.38663327	     -1.04171922	     11.78849247	     -5.31451983	      5.28130337	    -51.57098122	     -4.45201144	     -0.89694098	     27.79135372	     14.52474342	     10.06448010	     -3.92908370	     -4.69044353	     -8.89921033	     -0.92053096	     28.00473773	      6.40646536	     -7.30335287	    111.53341495
      3.57000000	     -5.70277921	      7.32846130	    358.25782120	      0.69222023	      1.38720451	     -1.04220505	     12.42241622	     -5.18251145	      5.45095749	    -52.32683431	     -3.87629140	     -0.79947244	     27.82337359	     14.14970881	     10.02921252	     -3.56251678	     -4.65577616	     -8.81868315	     -1.39611645	     27.70997891	      6.28992647	     -7.21259156	    111.34724234
      3.57500000	     -5.64426175	      7.20121056	    358.25807713	      0.69647705	      1.38777453	     -1.04275839	     13.05271223	     -5.02196153	      5.54935480	    -52.99270558	     -3.23839731	     -0.76038368	     27.79522462	     13.82668027	      9.96440262	     -3.17084049	     -4.68454952	     -8.69414088	     -1.80662089	     27.37329943	      6.21060550	     -7.07202094	    111.19482142
